<svg width="60" height="60" viewBox="0 0 60 60" fill="none" xmlns="http://www.w3.org/2000/svg">
<path d="M50.3625 20.675L54.27 16.7675L50.735 13.2325L46.465 17.5C43.84 15.925 40.78 15 37.5 15C27.8525 15 20 22.85 20 32.5C20 42.15 27.8525 50 37.5 50C47.1475 50 55 42.15 55 32.5C54.998 28.1151 53.3419 23.8923 50.3625 20.675ZM37.5 45C30.6075 45 25 39.3925 25 32.5C25 25.6075 30.6075 20 37.5 20C44.3925 20 50 25.6075 50 32.5C50 39.3925 44.3925 45 37.5 45Z" fill="#407AFF"/>
<path d="M35 25H40V35H35V25ZM32.5 7.5H42.5V12.5H32.5V7.5ZM7.5 20H17.5V25H7.5V20ZM7.5 40H17.5V45H7.5V40ZM5 30H14.975V35H5V30Z" fill="#407AFF"/>
</svg>
