<svg width="30" height="30" viewBox="0 0 30 30" fill="none" xmlns="http://www.w3.org/2000/svg">
<path d="M23.4375 2.8125H8.4375C7.94022 2.8125 7.46331 3.01004 7.11167 3.36167C6.76004 3.71331 6.5625 4.19022 6.5625 4.6875V7.5H4.6875C4.19022 7.5 3.71331 7.69754 3.36167 8.04918C3.01004 8.40081 2.8125 8.87772 2.8125 9.375V20.625C2.8125 21.1223 3.01004 21.5992 3.36167 21.9508C3.71331 22.3025 4.19022 22.5 4.6875 22.5H6.5625V25.3125C6.5625 25.8098 6.76004 26.2867 7.11167 26.6383C7.46331 26.99 7.94022 27.1875 8.4375 27.1875H23.4375C23.9348 27.1875 24.4117 26.99 24.7633 26.6383C25.115 26.2867 25.3125 25.8098 25.3125 25.3125V4.6875C25.3125 4.19022 25.115 3.71331 24.7633 3.36167C24.4117 3.01004 23.9348 2.8125 23.4375 2.8125ZM7.99219 18.0352L6.58594 12.4102C6.5567 12.2901 6.55139 12.1655 6.57031 12.0434C6.58923 11.9213 6.63202 11.8042 6.69622 11.6986C6.76042 11.593 6.84479 11.5012 6.9445 11.4282C7.04421 11.3553 7.15731 11.3027 7.27734 11.2734C7.51977 11.2144 7.77572 11.2541 7.9889 11.3837C8.09445 11.4479 8.18633 11.5323 8.25928 11.632C8.33223 11.7317 8.38482 11.8448 8.41406 11.9648L9.15234 14.9414L9.92578 13.2188C9.99976 13.0537 10.1199 12.9136 10.2717 12.8154C10.4234 12.7171 10.6004 12.6648 10.7812 12.6648C10.9621 12.6648 11.1391 12.7171 11.2908 12.8154C11.4426 12.9136 11.5627 13.0537 11.6367 13.2188L12.4102 14.9414L13.1484 11.9648C13.1777 11.8448 13.2303 11.7317 13.3032 11.632C13.3762 11.5323 13.468 11.4479 13.5736 11.3837C13.6792 11.3195 13.7963 11.2767 13.9184 11.2578C14.0405 11.2389 14.1651 11.2442 14.2852 11.2734C14.4052 11.3027 14.5183 11.3553 14.618 11.4282C14.7177 11.5012 14.8021 11.593 14.8663 11.6986C14.9305 11.8042 14.9733 11.9213 14.9922 12.0434C15.0111 12.1655 15.0058 12.2901 14.9766 12.4102L13.5703 18.0352C13.5227 18.2258 13.417 18.3969 13.268 18.5249C13.119 18.653 12.9339 18.7316 12.7383 18.75H12.6562C12.4741 18.7508 12.2958 18.6978 12.1437 18.5978C11.9915 18.4977 11.8722 18.355 11.8008 18.1875L10.7812 15.9023L9.76172 18.1875C9.68393 18.3675 9.55163 18.5187 9.38345 18.6196C9.21528 18.7205 9.01969 18.7661 8.82422 18.75C8.62861 18.7316 8.44352 18.653 8.29449 18.5249C8.14546 18.3969 8.03984 18.2258 7.99219 18.0352ZM23.4375 25.3125H8.4375V22.5H16.875C17.3723 22.5 17.8492 22.3025 18.2008 21.9508C18.5525 21.5992 18.75 21.1223 18.75 20.625V19.6875H23.4375V25.3125ZM23.4375 17.8125H18.75V12.1875H23.4375V17.8125ZM23.4375 10.3125H18.75V9.375C18.75 8.87772 18.5525 8.40081 18.2008 8.04918C17.8492 7.69754 17.3723 7.5 16.875 7.5H8.4375V4.6875H23.4375V10.3125Z" fill="#4F77FF"/>
</svg>
