<svg width="111" height="27" viewBox="0 0 111 27" fill="none" xmlns="http://www.w3.org/2000/svg">
<rect x="8.14218" width="20.0156" height="5.2" rx="2.6" fill="#407AFF"/>
<rect x="8.14218" y="10.4" width="20.0156" height="5.2" rx="2.6" fill="#407AFF"/>
<rect x="8.14218" y="20.8" width="20.0156" height="5.2" rx="2.6" fill="#407AFF"/>
<rect x="0.135925" width="4.00313" height="26" rx="2.00156" fill="#407AFF"/>
<path d="M40.1065 16.0369V19H30.9389V16.0369H40.1065ZM44.0515 26V5.63636H57.0969V8.72869H47.7404V14.2571H56.2021V17.3494H47.7404V26H44.0515ZM65.8395 26.2983C64.348 26.2983 63.0554 25.9702 61.9616 25.3139C60.8679 24.6577 60.0194 23.7396 59.4162 22.5597C58.8196 21.3797 58.5213 20.0009 58.5213 18.4233C58.5213 16.8456 58.8196 15.4635 59.4162 14.277C60.0194 13.0904 60.8679 12.169 61.9616 11.5128C63.0554 10.8565 64.348 10.5284 65.8395 10.5284C67.331 10.5284 68.6236 10.8565 69.7173 11.5128C70.8111 12.169 71.6563 13.0904 72.2528 14.277C72.8561 15.4635 73.1577 16.8456 73.1577 18.4233C73.1577 20.0009 72.8561 21.3797 72.2528 22.5597C71.6563 23.7396 70.8111 24.6577 69.7173 25.3139C68.6236 25.9702 67.331 26.2983 65.8395 26.2983ZM65.8594 23.4148C66.6681 23.4148 67.3442 23.1927 67.8878 22.7486C68.4313 22.2978 68.8357 21.6946 69.1009 20.9389C69.3726 20.1832 69.5085 19.3414 69.5085 18.4134C69.5085 17.4787 69.3726 16.6335 69.1009 15.8778C68.8357 15.1155 68.4313 14.509 67.8878 14.0582C67.3442 13.6075 66.6681 13.3821 65.8594 13.3821C65.0308 13.3821 64.3414 13.6075 63.7912 14.0582C63.2476 14.509 62.84 15.1155 62.5682 15.8778C62.303 16.6335 62.1705 17.4787 62.1705 18.4134C62.1705 19.3414 62.303 20.1832 62.5682 20.9389C62.84 21.6946 63.2476 22.2978 63.7912 22.7486C64.3414 23.1927 65.0308 23.4148 65.8594 23.4148ZM76.2127 26V10.7273H79.7028V13.2727H79.8619C80.1403 12.3911 80.6175 11.7116 81.2937 11.2344C81.9764 10.7505 82.7553 10.5085 83.6303 10.5085C83.8292 10.5085 84.0513 10.5185 84.2965 10.5384C84.5484 10.5516 84.7572 10.5748 84.9229 10.608V13.919C84.7705 13.866 84.5285 13.8196 84.1971 13.7798C83.8723 13.7334 83.5574 13.7102 83.2525 13.7102C82.5962 13.7102 82.0063 13.8527 81.4826 14.1378C80.9656 14.4162 80.5579 14.804 80.2596 15.3011C79.9613 15.7983 79.8121 16.3717 79.8121 17.0213V26H76.2127ZM87.3143 26V10.7273H90.7546V13.3224H90.9336C91.2518 12.4474 91.7788 11.7647 92.5146 11.2741C93.2504 10.777 94.1287 10.5284 95.1495 10.5284C96.1836 10.5284 97.0553 10.7803 97.7646 11.2841C98.4805 11.7812 98.9843 12.4607 99.2759 13.3224H99.435C99.7731 12.474 100.343 11.7978 101.145 11.294C101.954 10.7836 102.912 10.5284 104.019 10.5284C105.424 10.5284 106.571 10.9725 107.459 11.8608C108.347 12.7491 108.792 14.045 108.792 15.7486V26H105.182V16.3054C105.182 15.3575 104.93 14.6648 104.426 14.2273C103.923 13.7831 103.306 13.5611 102.577 13.5611C101.709 13.5611 101.029 13.8329 100.539 14.3764C100.055 14.9134 99.8129 15.6127 99.8129 16.4744V26H96.283V16.1562C96.283 15.3674 96.0444 14.7377 95.5671 14.267C95.0965 13.7964 94.48 13.5611 93.7177 13.5611C93.2006 13.5611 92.73 13.6937 92.3058 13.9588C91.8815 14.2173 91.5434 14.5852 91.2915 15.0625C91.0397 15.5331 90.9137 16.0833 90.9137 16.7131V26H87.3143Z" fill="#FAFAFA"/>
</svg>
