<svg width="234" height="83" viewBox="0 0 234 83" fill="none" xmlns="http://www.w3.org/2000/svg">
<rect x="8.14218" y="26" width="20.0156" height="5.2" rx="2.6" fill="#407AFF"/>
<rect x="8.14218" y="36.4" width="20.0156" height="5.2" rx="2.6" fill="#407AFF"/>
<rect x="8.14218" y="46.8" width="20.0156" height="5.2" rx="2.6" fill="#407AFF"/>
<rect x="0.135925" y="26" width="4.00313" height="26" rx="2.00156" fill="#407AFF"/>
<path d="M48.2714 42.0369V45H39.1038V42.0369H48.2714ZM52.2163 52V31.6364H65.2618V34.7287H55.9053V40.2571H64.3669V43.3494H55.9053V52H52.2163ZM74.0043 52.2983C72.5129 52.2983 71.2203 51.9702 70.1265 51.3139C69.0328 50.6577 68.1843 49.7396 67.581 48.5597C66.9845 47.3797 66.6862 46.0009 66.6862 44.4233C66.6862 42.8456 66.9845 41.4635 67.581 40.277C68.1843 39.0904 69.0328 38.169 70.1265 37.5128C71.2203 36.8565 72.5129 36.5284 74.0043 36.5284C75.4958 36.5284 76.7884 36.8565 77.8822 37.5128C78.9759 38.169 79.8211 39.0904 80.4177 40.277C81.0209 41.4635 81.3225 42.8456 81.3225 44.4233C81.3225 46.0009 81.0209 47.3797 80.4177 48.5597C79.8211 49.7396 78.9759 50.6577 77.8822 51.3139C76.7884 51.9702 75.4958 52.2983 74.0043 52.2983ZM74.0242 49.4148C74.8329 49.4148 75.5091 49.1927 76.0526 48.7486C76.5962 48.2978 77.0006 47.6946 77.2657 46.9389C77.5375 46.1832 77.6734 45.3414 77.6734 44.4134C77.6734 43.4787 77.5375 42.6335 77.2657 41.8778C77.0006 41.1155 76.5962 40.509 76.0526 40.0582C75.5091 39.6075 74.8329 39.3821 74.0242 39.3821C73.1956 39.3821 72.5062 39.6075 71.956 40.0582C71.4125 40.509 71.0048 41.1155 70.733 41.8778C70.4679 42.6335 70.3353 43.4787 70.3353 44.4134C70.3353 45.3414 70.4679 46.1832 70.733 46.9389C71.0048 47.6946 71.4125 48.2978 71.956 48.7486C72.5062 49.1927 73.1956 49.4148 74.0242 49.4148ZM84.3776 52V36.7273H87.8676V39.2727H88.0267C88.3051 38.3911 88.7824 37.7116 89.4585 37.2344C90.1413 36.7505 90.9202 36.5085 91.7952 36.5085C91.994 36.5085 92.2161 36.5185 92.4614 36.5384C92.7133 36.5516 92.9221 36.5748 93.0878 36.608V39.919C92.9353 39.866 92.6934 39.8196 92.3619 39.7798C92.0371 39.7334 91.7223 39.7102 91.4173 39.7102C90.7611 39.7102 90.1711 39.8527 89.6475 40.1378C89.1304 40.4162 88.7227 40.804 88.4244 41.3011C88.1261 41.7983 87.977 42.3717 87.977 43.0213V52H84.3776ZM95.4791 52V36.7273H98.9195V39.3224H99.0984C99.4166 38.4474 99.9436 37.7647 100.679 37.2741C101.415 36.777 102.294 36.5284 103.314 36.5284C104.348 36.5284 105.22 36.7803 105.929 37.2841C106.645 37.7812 107.149 38.4607 107.441 39.3224H107.6C107.938 38.474 108.508 37.7978 109.31 37.294C110.119 36.7836 111.077 36.5284 112.184 36.5284C113.589 36.5284 114.736 36.9725 115.624 37.8608C116.512 38.7491 116.956 40.045 116.956 41.7486V52H113.347V42.3054C113.347 41.3575 113.095 40.6648 112.591 40.2273C112.088 39.7831 111.471 39.5611 110.742 39.5611C109.874 39.5611 109.194 39.8329 108.704 40.3764C108.22 40.9134 107.978 41.6127 107.978 42.4744V52H104.448V42.1562C104.448 41.3674 104.209 40.7377 103.732 40.267C103.261 39.7964 102.645 39.5611 101.883 39.5611C101.365 39.5611 100.895 39.6937 100.471 39.9588C100.046 40.2173 99.7083 40.5852 99.4564 41.0625C99.2045 41.5331 99.0786 42.0833 99.0786 42.7131V52H95.4791Z" fill="#FAFAFA"/>
</svg>
