<svg width="132" height="32" viewBox="0 0 132 32" fill="none" xmlns="http://www.w3.org/2000/svg">
<path d="M48.6932 17.6136V21H38.2159V17.6136H48.6932ZM53.2017 29V5.72727H68.1108V9.26136H57.4176V15.5795H67.0881V19.1136H57.4176V29H53.2017ZM78.1023 29.3409C76.3977 29.3409 74.9205 28.9659 73.6705 28.2159C72.4205 27.4659 71.4508 26.4167 70.7614 25.0682C70.0795 23.7197 69.7386 22.1439 69.7386 20.3409C69.7386 18.5379 70.0795 16.9583 70.7614 15.6023C71.4508 14.2462 72.4205 13.1932 73.6705 12.4432C74.9205 11.6932 76.3977 11.3182 78.1023 11.3182C79.8068 11.3182 81.2841 11.6932 82.5341 12.4432C83.7841 13.1932 84.75 14.2462 85.4318 15.6023C86.1212 16.9583 86.4659 18.5379 86.4659 20.3409C86.4659 22.1439 86.1212 23.7197 85.4318 25.0682C84.75 26.4167 83.7841 27.4659 82.5341 28.2159C81.2841 28.9659 79.8068 29.3409 78.1023 29.3409ZM78.125 26.0455C79.0492 26.0455 79.822 25.7917 80.4432 25.2841C81.0644 24.7689 81.5265 24.0795 81.8295 23.2159C82.1402 22.3523 82.2955 21.3902 82.2955 20.3295C82.2955 19.2614 82.1402 18.2955 81.8295 17.4318C81.5265 16.5606 81.0644 15.8674 80.4432 15.3523C79.822 14.8371 79.0492 14.5795 78.125 14.5795C77.178 14.5795 76.3902 14.8371 75.7614 15.3523C75.1402 15.8674 74.6742 16.5606 74.3636 17.4318C74.0606 18.2955 73.9091 19.2614 73.9091 20.3295C73.9091 21.3902 74.0606 22.3523 74.3636 23.2159C74.6742 24.0795 75.1402 24.7689 75.7614 25.2841C76.3902 25.7917 77.178 26.0455 78.125 26.0455ZM89.9574 29V11.5455H93.946V14.4545H94.1278C94.446 13.447 94.9915 12.6705 95.7642 12.125C96.5445 11.572 97.4347 11.2955 98.4347 11.2955C98.6619 11.2955 98.9157 11.3068 99.196 11.3295C99.4839 11.3447 99.7225 11.3712 99.9119 11.4091V15.1932C99.7377 15.1326 99.4612 15.0795 99.0824 15.0341C98.7112 14.9811 98.3513 14.9545 98.0028 14.9545C97.2528 14.9545 96.5786 15.1174 95.9801 15.4432C95.3892 15.7614 94.9233 16.2045 94.5824 16.7727C94.2415 17.3409 94.071 17.9962 94.071 18.7386V29H89.9574ZM102.645 29V11.5455H106.577V14.5114H106.781C107.145 13.5114 107.747 12.7311 108.588 12.1705C109.429 11.6023 110.433 11.3182 111.599 11.3182C112.781 11.3182 113.777 11.6061 114.588 12.1818C115.406 12.75 115.982 13.5265 116.315 14.5114H116.497C116.884 13.5417 117.535 12.7689 118.452 12.1932C119.376 11.6098 120.471 11.3182 121.736 11.3182C123.342 11.3182 124.652 11.8258 125.668 12.8409C126.683 13.8561 127.19 15.3371 127.19 17.2841V29H123.065V17.9205C123.065 16.8371 122.777 16.0455 122.202 15.5455C121.626 15.0379 120.921 14.7841 120.088 14.7841C119.096 14.7841 118.319 15.0947 117.759 15.7159C117.205 16.3295 116.929 17.1288 116.929 18.1136V29H112.895V17.75C112.895 16.8485 112.622 16.1288 112.077 15.5909C111.539 15.053 110.834 14.7841 109.963 14.7841C109.372 14.7841 108.834 14.9356 108.349 15.2386C107.865 15.5341 107.478 15.9545 107.19 16.5C106.902 17.0379 106.759 17.6667 106.759 18.3864V29H102.645Z" fill="#1D242B"/>
<rect x="11.2857" y="1" width="23.7143" height="4.21071" rx="2.10536" fill="#407AFF" stroke="#1D242B" stroke-width="2"/>
<rect x="11.2857" y="13.4214" width="23.7143" height="4.21071" rx="2.10536" fill="#407AFF" stroke="#1D242B" stroke-width="2"/>
<rect x="11.2857" y="25.8429" width="23.7143" height="4.21071" rx="2.10536" fill="#407AFF" stroke="#1D242B" stroke-width="2"/>
<rect x="1" y="1" width="3.14286" height="29.0536" rx="1.57143" fill="#407AFF" stroke="#1D242B" stroke-width="2"/>
</svg>
