<svg width="236" height="83" viewBox="0 0 236 83" fill="none" xmlns="http://www.w3.org/2000/svg">
<path d="M52.6932 41.6136V45H42.2159V41.6136H52.6932ZM57.2017 53V29.7273H72.1108V33.2614H61.4176V39.5795H71.0881V43.1136H61.4176V53H57.2017ZM82.1023 53.3409C80.3977 53.3409 78.9205 52.9659 77.6705 52.2159C76.4205 51.4659 75.4508 50.4167 74.7614 49.0682C74.0795 47.7197 73.7386 46.1439 73.7386 44.3409C73.7386 42.5379 74.0795 40.9583 74.7614 39.6023C75.4508 38.2462 76.4205 37.1932 77.6705 36.4432C78.9205 35.6932 80.3977 35.3182 82.1023 35.3182C83.8068 35.3182 85.2841 35.6932 86.5341 36.4432C87.7841 37.1932 88.75 38.2462 89.4318 39.6023C90.1212 40.9583 90.4659 42.5379 90.4659 44.3409C90.4659 46.1439 90.1212 47.7197 89.4318 49.0682C88.75 50.4167 87.7841 51.4659 86.5341 52.2159C85.2841 52.9659 83.8068 53.3409 82.1023 53.3409ZM82.125 50.0455C83.0492 50.0455 83.822 49.7917 84.4432 49.2841C85.0644 48.7689 85.5265 48.0795 85.8295 47.2159C86.1402 46.3523 86.2955 45.3902 86.2955 44.3295C86.2955 43.2614 86.1402 42.2955 85.8295 41.4318C85.5265 40.5606 85.0644 39.8674 84.4432 39.3523C83.822 38.8371 83.0492 38.5795 82.125 38.5795C81.178 38.5795 80.3902 38.8371 79.7614 39.3523C79.1402 39.8674 78.6742 40.5606 78.3636 41.4318C78.0606 42.2955 77.9091 43.2614 77.9091 44.3295C77.9091 45.3902 78.0606 46.3523 78.3636 47.2159C78.6742 48.0795 79.1402 48.7689 79.7614 49.2841C80.3902 49.7917 81.178 50.0455 82.125 50.0455ZM93.9574 53V35.5455H97.946V38.4545H98.1278C98.446 37.447 98.9915 36.6705 99.7642 36.125C100.545 35.572 101.435 35.2955 102.435 35.2955C102.662 35.2955 102.916 35.3068 103.196 35.3295C103.484 35.3447 103.723 35.3712 103.912 35.4091V39.1932C103.738 39.1326 103.461 39.0795 103.082 39.0341C102.711 38.9811 102.351 38.9545 102.003 38.9545C101.253 38.9545 100.579 39.1174 99.9801 39.4432C99.3892 39.7614 98.9233 40.2045 98.5824 40.7727C98.2415 41.3409 98.071 41.9962 98.071 42.7386V53H93.9574ZM106.645 53V35.5455H110.577V38.5114H110.781C111.145 37.5114 111.747 36.7311 112.588 36.1705C113.429 35.6023 114.433 35.3182 115.599 35.3182C116.781 35.3182 117.777 35.6061 118.588 36.1818C119.406 36.75 119.982 37.5265 120.315 38.5114H120.497C120.884 37.5417 121.535 36.7689 122.452 36.1932C123.376 35.6098 124.471 35.3182 125.736 35.3182C127.342 35.3182 128.652 35.8258 129.668 36.8409C130.683 37.8561 131.19 39.3371 131.19 41.2841V53H127.065V41.9205C127.065 40.8371 126.777 40.0455 126.202 39.5455C125.626 39.0379 124.921 38.7841 124.088 38.7841C123.096 38.7841 122.319 39.0947 121.759 39.7159C121.205 40.3295 120.929 41.1288 120.929 42.1136V53H116.895V41.75C116.895 40.8485 116.622 40.1288 116.077 39.5909C115.539 39.053 114.834 38.7841 113.963 38.7841C113.372 38.7841 112.834 38.9356 112.349 39.2386C111.865 39.5341 111.478 39.9545 111.19 40.5C110.902 41.0379 110.759 41.6667 110.759 42.3864V53H106.645Z" fill="#1D242B"/>
<rect x="11.2857" y="23" width="23.7143" height="4.21071" rx="2.10536" fill="#407AFF" stroke="#1D242B" stroke-width="2"/>
<rect x="11.2857" y="35.4214" width="23.7143" height="4.21071" rx="2.10536" fill="#407AFF" stroke="#1D242B" stroke-width="2"/>
<rect x="11.2857" y="47.8429" width="23.7143" height="4.21071" rx="2.10536" fill="#407AFF" stroke="#1D242B" stroke-width="2"/>
<rect x="1" y="23" width="3.14286" height="29.0536" rx="1.57143" fill="#407AFF" stroke="#1D242B" stroke-width="2"/>
</svg>
