<svg width="60" height="60" viewBox="0 0 60 60" fill="none" xmlns="http://www.w3.org/2000/svg">
<path d="M15.625 8.75C15.1277 8.75 14.6508 8.94754 14.2992 9.29917C13.9475 9.65081 13.75 10.1277 13.75 10.625V49.375C13.75 50.41 14.59 51.25 15.625 51.25H25.075C24.8167 52.5404 25.0579 53.8807 25.75 55H15.625C14.1332 55 12.7024 54.4074 11.6475 53.3525C10.5926 52.2976 10 50.8668 10 49.375V10.625C10 9.13316 10.5926 7.70242 11.6475 6.64752C12.7024 5.59263 14.1332 5 15.625 5H30.84C32 5 33.1125 5.46 33.9325 6.2825L48.7175 21.0675C49.54 21.8875 50 23 50 24.16V25H49.675C49.3985 24.9862 49.1215 24.9862 48.845 25H35C33.6739 25 32.4021 24.4732 31.4645 23.5355C30.5268 22.5979 30 21.3261 30 20V8.75H15.625ZM33.75 11.4V20C33.75 20.3315 33.8817 20.6495 34.1161 20.8839C34.3505 21.1183 34.6685 21.25 35 21.25H43.6L33.75 11.4V11.4ZM49.2825 27.5H49.2875C50.4173 27.5009 51.5214 27.8367 52.4605 28.4649C53.3995 29.0931 54.1313 29.9855 54.5633 31.0294C54.9954 32.0733 55.1084 33.2219 54.888 34.3299C54.6675 35.438 54.1237 36.4559 53.325 37.255L38.57 52.01C37.7103 52.8709 36.6327 53.4819 35.4525 53.7775L30.875 54.92C30.4198 55.0337 29.943 55.0276 29.4908 54.9023C29.0387 54.777 28.6267 54.5368 28.2949 54.2051C27.9632 53.8733 27.723 53.4613 27.5977 53.0092C27.4724 52.5571 27.4663 52.0802 27.58 51.625L28.7225 47.05C29.0175 45.8675 29.6275 44.79 30.49 43.93L45.245 29.175C45.7745 28.6437 46.4038 28.2222 47.0966 27.9347C47.7895 27.6473 48.5324 27.4995 49.2825 27.5V27.5Z" fill="#407AFF"/>
</svg>
