<svg width="60" height="60" viewBox="0 0 60 60" fill="none" xmlns="http://www.w3.org/2000/svg">
<path d="M15.3379 0C12.0721 0 8.65675 2.2925 5.62803 6.5625C2.59931 10.8325 0.256428 17.2675 0.378406 25.7825C0.378406 29.8475 1.57286 34.3575 3.83059 38.125C4.162 38.68 4.73507 39.0125 5.12401 39.5325C3.54061 41.61 0.808778 45.5475 0.808778 45.5475C0.563681 45.7744 0.365138 46.0546 0.225985 46.37C0.0868324 46.6855 0.0101667 47.0291 0.00094417 47.3788C-0.00827831 47.7284 0.0501478 48.0763 0.172445 48.3998C0.294743 48.7234 0.47819 49.0155 0.710927 49.2573C0.943665 49.499 1.22051 49.685 1.52357 49.8032C1.82663 49.9215 2.14916 49.9693 2.4703 49.9436C2.79144 49.918 3.10406 49.8194 3.38793 49.6543C3.6718 49.4891 3.92061 49.2611 4.11828 48.985C4.11828 48.985 6.88693 44.96 8.35987 43.0475C10.0583 44.22 12.0008 45 14.1872 45C18.1181 45 21.8096 42.9575 24.9741 40.155C25.4229 39.76 25.6945 39.1775 26.1248 38.75C27.1398 39.5225 28.3342 40 29.6484 40C31.8555 40 33.7288 38.8575 35.333 37.5C36.9348 36.1425 38.3087 34.5075 39.5746 32.89C40.4238 31.805 41.0452 30.905 41.7333 30C41.6482 31.1775 41.5791 32.3375 41.5883 33.4375C41.5929 34.0125 41.6159 34.53 41.8047 35.235C41.8967 35.585 41.9796 36.07 42.38 36.5625C42.7805 37.055 43.5952 37.5 44.3202 37.5C46.2005 37.5 47.5997 36.355 48.6354 35.235C49.6711 34.1125 50.5019 32.8225 51.4432 31.64C53.3166 29.2775 55.1209 27.5 57.6985 27.5C58.3089 27.5 58.8943 27.2366 59.3259 26.7678C59.7575 26.2989 60 25.663 60 25C60 24.337 59.7575 23.7011 59.3259 23.2322C58.8943 22.7634 58.3089 22.5 57.6985 22.5C53.1417 22.5 50.0807 25.725 47.9887 28.36C47.3397 29.1775 46.8518 29.735 46.3362 30.39C46.3408 30.3 46.3293 30.2475 46.3362 30.155C46.4237 28.885 46.5664 27.6475 46.4789 26.405C46.4557 25.7045 46.3088 25.0153 46.0463 24.375C45.724 23.61 44.647 22.5 43.4571 22.5C42.212 22.5 41.5101 23.095 40.9416 23.595C40.3732 24.095 39.876 24.675 39.3582 25.3125C38.3226 26.5875 37.2294 28.1025 36.051 29.61C34.8704 31.1175 33.6207 32.6075 32.4538 33.595C31.2893 34.58 30.3204 35 29.6484 35C29.4965 35 29.4182 34.7175 29.2893 34.6875C30.5022 33.105 31.9935 31.745 32.9579 30.0775C35.0591 26.4375 36.5205 22.835 36.9854 19.6875C37.2179 18.1125 37.3007 16.5825 36.6264 15.0775C35.9498 13.575 34.1868 12.5 32.5988 12.5C29.5034 12.5 26.9004 14.675 25.1191 17.5775C23.3355 20.4825 22.2423 24.2925 22.2423 28.515C22.2423 30.7075 22.8752 32.55 23.5357 34.375C22.9879 34.95 22.5921 35.75 22.0259 36.25C19.3654 38.605 16.583 40 14.1872 40C13.1446 40 12.2148 39.505 11.3103 38.985C12.3851 37.43 12.468 37.635 13.6118 35.78C18.3252 28.1325 23.1767 18.3575 23.1767 8.9875C23.1767 7.875 23.1076 5.8625 22.0259 3.83C20.9442 1.795 18.5323 0 15.3379 0ZM15.3379 5C17.2067 5 17.5841 5.55 17.9984 6.3275C18.4126 7.1075 18.5737 8.3475 18.5737 8.985C18.5737 16.365 14.2194 25.7575 9.72693 33.0475C8.80865 34.5375 8.80865 34.3325 7.92949 35.625C7.86735 35.525 7.7753 35.4925 7.71316 35.39C6.00087 32.5325 4.98132 28.715 4.98132 25.78C4.98167 25.755 4.98167 25.73 4.98132 25.705C4.87316 18.2175 6.91455 13.0425 9.29656 9.6875C11.6763 6.3325 14.6889 5 15.3379 5ZM32.4538 17.5775C32.4861 17.7625 32.5735 18.0925 32.4538 18.905C32.157 20.915 30.9418 24.1875 29.073 27.4225C28.5598 28.31 27.7312 28.9725 27.1329 29.845C27.0776 29.325 26.8452 29.085 26.8452 28.515C26.8452 25.24 27.7197 22.2825 28.9303 20.3125C30.0856 18.4275 31.4228 17.65 32.4538 17.5775ZM0.162069 55V60H60V55H0.162069Z" fill="#407AFF"/>
</svg>
